<?xml version="1.0" standalone="no"?>
<!DOCTYPE svg PUBLIC "-//W3C//DTD SVG 20010904//EN"
 "http://www.w3.org/TR/2001/REC-SVG-20010904/DTD/svg10.dtd">
<svg version="1.0" xmlns="http://www.w3.org/2000/svg"
 width="500.000000pt" height="500.000000pt" viewBox="0 0 500.000000 500.000000"
 preserveAspectRatio="xMidYMid meet">

<g transform="translate(0.000000,500.000000) scale(0.100000,-0.100000)"
fill="#000000" stroke="none">
<path d="M2370 4759 c-621 -29 -1231 -346 -1629 -844 -235 -295 -394 -645
-462 -1023 -27 -150 -37 -473 -19 -634 112 -1013 880 -1824 1885 -1990 175
-29 534 -32 700 -5 738 118 1352 563 1686 1222 160 318 239 651 239 1015 0
600 -216 1137 -635 1579 -366 386 -944 655 -1450 677 -66 2 -133 6 -150 7 -16
2 -91 0 -165 -4z m-482 -1190 c209 -48 400 -168 532 -333 l45 -57 12 28 c8 18
12 90 13 205 l0 176 83 4 c45 2 292 2 550 0 l467 -3 0 -105 0 -105 -57 47
c-32 26 -90 62 -128 81 -109 52 -192 63 -461 63 l-234 0 0 -270 c0 -161 5
-290 11 -322 24 -113 82 -187 179 -232 69 -32 128 -44 260 -54 l105 -7 3 -102
c1 -57 0 -103 -4 -103 -4 0 -23 15 -44 34 -21 18 -106 69 -191 112 -174 89
-251 153 -294 245 l-25 54 0 -612 0 -613 228 0 c292 1 356 9 452 57 86 44 149
113 206 228 40 80 40 94 2 -157 l-22 -148 -543 0 -543 0 -2 223 -3 222 -35
-50 c-108 -157 -307 -298 -500 -355 -41 -12 -79 -26 -85 -30 -5 -4 -189 -9
-407 -9 l-398 -2 0 921 c0 796 -2 926 -15 957 -8 19 -15 37 -15 39 0 1 174 1
388 -2 331 -5 399 -9 470 -25z m2122 -934 l0 -955 -105 0 -105 0 0 955 0 955
105 0 105 0 0 -955z"/>
<path d="M1282 3545 c4 -36 662 -1585 669 -1577 4 4 26 54 49 112 23 58 118
284 211 503 l169 397 -30 74 c-75 190 -223 364 -375 443 -129 67 -168 73 -450
73 l-246 0 3 -25z"/>
<path d="M1281 2346 l-1 -648 248 4 c136 3 257 9 268 14 21 9 11 34 -242 632
-144 343 -265 629 -268 635 -2 7 -5 -280 -5 -637z"/>
<path d="M2136 2334 c-136 -322 -245 -588 -243 -590 10 -10 148 70 208 120
133 111 243 294 296 493 22 84 26 120 27 253 1 146 -17 310 -34 310 -4 0 -118
-264 -254 -586z"/>
</g>
</svg>
