<?xml version="1.0" standalone="no"?>
<!DOCTYPE svg PUBLIC "-//W3C//DTD SVG 20010904//EN"
 "http://www.w3.org/TR/2001/REC-SVG-20010904/DTD/svg10.dtd">
<svg version="1.0" xmlns="http://www.w3.org/2000/svg"
 width="500.000000pt" height="500.000000pt" viewBox="0 0 500.000000 500.000000"
 preserveAspectRatio="xMidYMid meet">

<g transform="translate(0.000000,500.000000) scale(0.100000,-0.100000)"
fill="#000000" stroke="none">
<path d="M2192 4744 c-291 -40 -622 -159 -865 -312 -606 -380 -985 -978 -1066
-1677 -16 -131 -13 -406 4 -542 106 -816 649 -1513 1416 -1817 132 -53 379
-118 519 -137 124 -18 496 -18 620 0 319 44 670 177 932 352 557 372 918 948
1003 1602 17 136 20 411 4 542 -53 456 -226 856 -528 1216 -347 415 -876 704
-1414 774 -147 19 -482 18 -625 -1z m-327 -1170 c208 -40 407 -159 543 -325
l57 -70 12 28 c8 18 12 90 13 205 l0 176 83 4 c45 2 292 2 550 0 l467 -3 0
-105 0 -105 -57 47 c-32 26 -90 62 -128 81 -109 52 -192 63 -461 63 l-234 0 0
-270 c0 -161 5 -290 11 -322 40 -186 163 -268 435 -286 l109 -7 3 -102 c1 -57
0 -103 -4 -103 -4 0 -24 16 -45 35 -21 19 -94 62 -161 96 -205 103 -269 155
-323 263 l-25 50 0 -612 0 -612 228 0 c292 1 356 9 452 57 86 44 149 113 206
228 40 80 40 94 2 -157 l-22 -148 -543 0 -543 0 -1 223 0 222 -22 -29 c-144
-191 -315 -315 -517 -376 -41 -12 -79 -26 -85 -30 -5 -4 -187 -9 -402 -9
l-393 -2 0 905 c0 882 -1 907 -20 958 -11 29 -20 54 -20 55 0 1 170 0 378 -3
276 -4 398 -9 457 -20z m2145 -939 l0 -955 -105 0 -105 0 0 955 0 955 105 0
105 0 0 -955z"/>
<path d="M1282 3543 c6 -40 662 -1583 669 -1575 3 4 21 43 39 87 18 44 113
271 211 503 l179 424 -33 82 c-76 187 -220 354 -374 434 -127 66 -166 72 -448
72 l-247 0 4 -27z"/>
<path d="M1281 2346 l-1 -648 248 4 c136 3 257 9 268 14 21 9 12 33 -242 634
-145 344 -266 630 -268 635 -2 6 -5 -282 -5 -639z"/>
<path d="M2136 2334 c-136 -322 -246 -588 -243 -590 10 -10 148 70 208 120
133 111 243 294 296 493 22 84 26 120 27 253 1 147 -17 310 -34 310 -4 0 -118
-264 -254 -586z"/>
</g>
</svg>
